<svg width="197" height="40" viewBox="0 0 197 40" fill="none" xmlns="http://www.w3.org/2000/svg">
<path d="M46.999 29.8554V9.40905H53.5596C55.9825 9.40905 58.0803 9.82706 59.8529 10.6631C61.6255 11.4991 62.9973 12.6805 63.9683 14.2071C64.9392 15.7338 65.4247 17.5422 65.4247 19.6322C65.4247 21.7132 64.9392 23.5216 63.9683 25.0573C62.9973 26.584 61.6255 27.7654 59.8529 28.6014C58.0803 29.4374 55.9825 29.8554 53.5596 29.8554H46.999ZM51.1144 26.1887H53.7066C55.31 26.1887 56.6684 25.9343 57.7819 25.4254C58.9042 24.9074 59.7549 24.1622 60.3339 23.1899C60.9218 22.2085 61.2158 21.0226 61.2158 19.6322C61.2158 18.2328 60.9218 17.0469 60.3339 16.0746C59.7549 15.1022 58.9042 14.3616 57.7819 13.8527C56.6684 13.3348 55.31 13.0758 53.7066 13.0758H51.1144V26.1887Z" fill="#1D1D1D"/>
<path d="M71.8383 29.8554H68.0035V16.2245H71.3439L71.4775 18.5827C71.9229 17.7557 72.5286 17.1105 73.2947 16.6471C74.0608 16.1836 74.9382 15.9519 75.9269 15.9519C76.212 15.9519 76.497 15.9746 76.7821 16.02C77.076 16.0564 77.3744 16.1155 77.6773 16.1972L77.1963 19.714C76.6084 19.5414 76.0516 19.455 75.5261 19.455C74.7867 19.455 74.1365 19.6277 73.5753 19.973C73.023 20.3092 72.5954 20.7818 72.2926 21.3906C71.9897 21.9904 71.8383 22.6947 71.8383 23.5034V29.8554Z" fill="#1D1D1D"/>
<path d="M91.7471 28.3288C90.0902 29.5283 88.2775 30.128 86.3089 30.128C84.848 30.128 83.5341 29.81 82.3672 29.1739C81.2092 28.5287 80.2917 27.6563 79.6147 26.5567C78.9467 25.4572 78.6126 24.2168 78.6126 22.8355C78.6126 21.5178 78.9155 20.341 79.5212 19.3051C80.1358 18.2691 80.9687 17.4513 82.0198 16.8515C83.0709 16.2518 84.2646 15.9519 85.6007 15.9519C86.9814 15.9519 88.1974 16.2836 89.2485 16.9469C90.2996 17.6012 91.1191 18.519 91.707 19.7004C92.2949 20.8727 92.5889 22.2312 92.5889 23.776V24.2122H82.7414C82.9017 24.7484 83.1645 25.2209 83.5297 25.6298C83.8949 26.0297 84.3492 26.3477 84.8926 26.584C85.436 26.8203 86.0595 26.9384 86.7632 26.9384C88.1261 26.9384 89.3954 26.4886 90.5713 25.589L91.7471 28.3288ZM82.5677 22.2221H89.048C88.9768 21.6314 88.7942 21.1135 88.5002 20.6682C88.2152 20.2138 87.8366 19.8594 87.3645 19.605C86.9013 19.3505 86.3802 19.2233 85.8012 19.2233C85.2133 19.2233 84.6877 19.3551 84.2245 19.6186C83.7702 19.8821 83.4005 20.2365 83.1155 20.6818C82.8304 21.1271 82.6478 21.6405 82.5677 22.2221Z" fill="#1D1D1D"/>
<path d="M106.939 29.8554H103.599L103.398 28.2334C102.908 28.8331 102.303 29.3011 101.581 29.6373C100.86 29.9645 100.067 30.128 99.2029 30.128C98.2676 30.128 97.4347 29.9463 96.7043 29.5828C95.9738 29.2102 95.3993 28.7013 94.9806 28.0561C94.5619 27.4019 94.3526 26.6613 94.3526 25.8343C94.3526 24.9619 94.5798 24.1941 95.034 23.5307C95.4883 22.8673 96.1119 22.3493 96.9047 21.9768C97.7064 21.5951 98.615 21.4043 99.6304 21.4043C100.227 21.4043 100.824 21.4724 101.421 21.6087C102.027 21.745 102.588 21.9359 103.104 22.1812V21.8268C103.104 21.2816 102.953 20.8136 102.65 20.4228C102.356 20.023 101.946 19.714 101.421 19.4959C100.904 19.2778 100.325 19.1688 99.6839 19.1688C99.0693 19.1688 98.4591 19.2687 97.8533 19.4687C97.2565 19.6686 96.7043 19.9685 96.1965 20.3683L95.1543 17.3831C96.054 16.9106 96.9626 16.5562 97.8801 16.3199C98.8065 16.0746 99.7017 15.9519 100.566 15.9519C101.866 15.9519 102.993 16.2154 103.946 16.7425C104.899 17.2605 105.634 17.9965 106.151 18.9507C106.676 19.8958 106.939 21.0181 106.939 22.3175V29.8554ZM100.045 27.1156C100.552 27.1156 101.038 27.002 101.501 26.7748C101.964 26.5477 102.338 26.2387 102.623 25.8479C102.917 25.4572 103.073 25.0255 103.091 24.553V24.4576C102.699 24.185 102.263 23.976 101.782 23.8306C101.31 23.6761 100.829 23.5988 100.339 23.5988C99.6082 23.5988 99.0114 23.7624 98.5482 24.0896C98.0849 24.4167 97.8533 24.8393 97.8533 25.3572C97.8533 25.6935 97.9469 25.9979 98.1339 26.2705C98.3299 26.534 98.5927 26.743 98.9223 26.8975C99.2519 27.0429 99.626 27.1156 100.045 27.1156Z" fill="#1D1D1D"/>
<path d="M131.672 29.8554H127.837V23.0127C127.837 21.8768 127.619 20.9999 127.182 20.3819C126.746 19.764 126.127 19.455 125.325 19.455C124.505 19.455 123.864 19.7685 123.401 20.3956C122.946 21.0226 122.719 21.895 122.719 23.0127V29.8554H118.885V23.0127C118.885 21.8768 118.666 20.9999 118.23 20.3819C117.793 19.764 117.17 19.455 116.359 19.455C115.549 19.455 114.912 19.7685 114.448 20.3956C113.994 21.0226 113.767 21.895 113.767 23.0127V29.8554H109.932V16.2245H112.992L113.126 18.4736C113.571 17.6467 114.168 17.0196 114.916 16.5925C115.673 16.1654 116.551 15.9519 117.548 15.9519C118.591 15.9519 119.49 16.1745 120.247 16.6198C121.005 17.0651 121.588 17.7057 121.998 18.5418C122.452 17.6966 123.053 17.056 123.802 16.6198C124.559 16.1745 125.454 15.9519 126.487 15.9519C128.117 15.9519 129.387 16.4835 130.295 17.5467C131.213 18.6008 131.672 20.0775 131.672 21.9768V29.8554Z" fill="#1D1D1D"/>
<path d="M155.362 14.5479C154.774 13.9481 154.07 13.4847 153.251 13.1576C152.44 12.8304 151.572 12.6668 150.645 12.6668C149.719 12.6668 148.872 12.8304 148.106 13.1576C147.34 13.4847 146.681 13.9527 146.129 14.5615C145.577 15.1704 145.149 15.8974 144.846 16.7425C144.543 17.5785 144.392 18.5145 144.392 19.5505C144.392 20.5864 144.543 21.536 144.846 22.3993C145.158 23.2626 145.594 24.0078 146.156 24.6348C146.726 25.2527 147.398 25.7343 148.173 26.0797C148.957 26.425 149.821 26.5976 150.765 26.5976C151.549 26.5976 152.266 26.475 152.917 26.2296C153.576 25.9842 154.155 25.6344 154.654 25.18C155.152 24.7257 155.562 24.1759 155.883 23.5307C156.212 22.8855 156.44 22.163 156.564 21.3634H150.752V18.1601H160.185L160.306 19.7413C160.306 21.2952 160.07 22.7174 159.597 24.0078C159.134 25.2982 158.475 26.4114 157.62 27.3473C156.765 28.2742 155.745 28.9921 154.56 29.501C153.384 30.0099 152.079 30.2644 150.645 30.2644C149.158 30.2644 147.777 29.9963 146.503 29.4601C145.238 28.924 144.129 28.1743 143.176 27.211C142.232 26.2478 141.497 25.121 140.971 23.8306C140.446 22.5311 140.183 21.1271 140.183 19.6186C140.183 18.1101 140.441 16.7152 140.958 15.4339C141.483 14.1435 142.214 13.0167 143.149 12.0534C144.093 11.0902 145.194 10.3405 146.45 9.80435C147.706 9.2682 149.073 9.00012 150.552 9.00012C151.932 9.00012 153.268 9.24548 154.56 9.73619C155.852 10.2269 157.005 10.9266 158.021 11.8354L155.362 14.5479Z" fill="#1D1D1D"/>
<path d="M164.808 12.9667C164.301 12.9667 163.873 12.785 163.526 12.4215C163.178 12.058 163.005 11.6173 163.005 11.0993C163.005 10.5813 163.178 10.1451 163.526 9.79072C163.873 9.42722 164.301 9.24548 164.808 9.24548C165.325 9.24548 165.757 9.42722 166.105 9.79072C166.461 10.1451 166.639 10.5813 166.639 11.0993C166.639 11.6173 166.461 12.058 166.105 12.4215C165.757 12.785 165.325 12.9667 164.808 12.9667ZM166.732 29.8554H162.898V16.2245H166.732V29.8554Z" fill="#1D1D1D"/>
<path d="M175.498 30.019C174.295 30.019 173.217 29.7146 172.264 29.1057C171.311 28.4878 170.563 27.6518 170.019 26.5976C169.476 25.5344 169.204 24.3304 169.204 22.9854C169.204 21.6314 169.476 20.4274 170.019 19.3733C170.563 18.3191 171.311 17.4876 172.264 16.8788C173.217 16.2609 174.3 15.9519 175.511 15.9519C176.455 15.9519 177.319 16.1427 178.103 16.5244C178.896 16.897 179.577 17.4149 180.148 18.0783L180.321 16.2245H183.688V29.4738C183.688 30.9823 183.363 32.2954 182.713 33.4131C182.072 34.5399 181.163 35.4078 179.987 36.0166C178.811 36.6345 177.435 36.9435 175.858 36.9435C173.667 36.9435 171.681 36.2438 169.899 34.8443L171.449 31.6547C172.634 32.8451 174.015 33.4404 175.591 33.4404C176.437 33.4404 177.177 33.2677 177.809 32.9224C178.451 32.5771 178.949 32.0954 179.306 31.4775C179.671 30.8596 179.854 30.1417 179.854 29.3238V28.2061C179.301 28.7695 178.656 29.2148 177.916 29.5419C177.177 29.86 176.371 30.019 175.498 30.019ZM176.486 26.5295C177.11 26.5295 177.676 26.3932 178.183 26.1206C178.691 25.8389 179.096 25.4526 179.399 24.9619C179.702 24.4621 179.854 23.8987 179.854 23.2717V22.6856C179.854 22.0585 179.698 21.4997 179.386 21.009C179.083 20.5182 178.678 20.1366 178.17 19.864C177.671 19.5823 177.11 19.4414 176.486 19.4414C175.845 19.4414 175.271 19.5959 174.763 19.9049C174.255 20.2138 173.854 20.6364 173.56 21.1725C173.266 21.6996 173.119 22.3039 173.119 22.9854C173.119 23.667 173.266 24.2758 173.56 24.812C173.854 25.3481 174.255 25.7707 174.763 26.0797C175.271 26.3795 175.845 26.5295 176.486 26.5295Z" fill="#1D1D1D"/>
<path d="M185.88 28.6832L186.721 25.3572C186.989 25.6571 187.345 25.9343 187.79 26.1887C188.245 26.4432 188.73 26.6476 189.247 26.8021C189.772 26.9475 190.267 27.0202 190.73 27.0202C191.282 27.0202 191.714 26.9157 192.026 26.7067C192.338 26.4886 192.494 26.1978 192.494 25.8343C192.494 25.5344 192.387 25.2845 192.173 25.0846C191.968 24.8756 191.688 24.6939 191.331 24.5394C190.984 24.3758 190.596 24.2168 190.169 24.0623C189.59 23.8351 188.993 23.5716 188.378 23.2717C187.773 22.9718 187.26 22.5629 186.842 22.0449C186.423 21.5269 186.214 20.8408 186.214 19.9866C186.214 19.1688 186.423 18.46 186.842 17.8602C187.26 17.2514 187.853 16.7834 188.619 16.4562C189.385 16.12 190.276 15.9519 191.291 15.9519C192.939 15.9519 194.583 16.3744 196.222 17.2196L195.139 20.3138C194.854 20.0866 194.498 19.8776 194.07 19.6868C193.643 19.4868 193.202 19.3278 192.748 19.2097C192.302 19.0915 191.901 19.0325 191.545 19.0325C191.109 19.0325 190.766 19.1234 190.516 19.3051C190.276 19.4868 190.155 19.7367 190.155 20.0548C190.155 20.2911 190.24 20.5046 190.409 20.6955C190.579 20.8772 190.828 21.0544 191.158 21.2271C191.496 21.3906 191.91 21.5678 192.4 21.7587C193.006 21.9858 193.616 22.2585 194.231 22.5765C194.854 22.8855 195.375 23.3035 195.794 23.8306C196.222 24.3485 196.435 25.0392 196.435 25.9025C196.435 26.7476 196.208 27.4882 195.754 28.1243C195.309 28.7604 194.676 29.2557 193.857 29.6101C193.046 29.9554 192.093 30.128 190.997 30.128C189.171 30.128 187.465 29.6464 185.88 28.6832Z" fill="#1D1D1D"/>
<path d="M10.6397 20.6724L4.92714 12.7136L20.3124 1.26104C20.3978 7.14264 18.1638 12.8213 14.0938 17.0682L10.6397 20.6724Z" fill="url(#paint0_linear_406_2865)"/>
<path d="M14.0938 17.0682C18.1638 12.8213 20.3978 7.14264 20.3124 1.26104L37.2373 7.65059L34.6882 22.6834L12.8047 27.5383L10.6397 20.6724L14.0938 17.0682Z" fill="url(#paint1_linear_406_2865)"/>
<path d="M29.5662 38.313L12.8047 27.5383L34.6882 22.6834L38.831 26.3644L29.5662 38.313Z" fill="url(#paint2_linear_406_2865)"/>
<path d="M34.6882 22.6834L38.831 26.3644L39.4837 23.7669C40.8558 18.3069 40.0502 12.5273 37.2373 7.65059L34.6882 22.6834Z" fill="url(#paint3_linear_406_2865)"/>
<path d="M12.8047 27.5383L29.5662 38.313L25.1272 37.9872C17.5873 37.4339 10.5344 34.0543 5.37916 28.5244L2.21615 25.1314L12.8047 27.5383Z" fill="url(#paint4_linear_406_2865)"/>
<path d="M4.92714 12.7136L2.21615 25.1314L12.8047 27.5383L10.6397 20.6724L4.92714 12.7136Z" fill="url(#paint5_linear_406_2865)"/>
<path d="M29.5666 38.3128L12.8052 27.5381L34.6887 22.6832L38.8314 26.3642L29.5666 38.3128Z" fill="black" fill-opacity="0.17"/>
<path d="M34.6884 22.6834L38.8312 26.3644L39.4839 23.7669C40.856 18.3069 40.0504 12.5273 37.2375 7.6506L34.6884 22.6834Z" fill="black" fill-opacity="0.1"/>
<path d="M12.8048 27.5384L29.5663 38.313L24.7368 37.9011C17.3542 37.2715 10.4657 33.9322 5.3985 28.5263L2.21625 25.1315L12.8048 27.5384Z" fill="black" fill-opacity="0.23"/>
<path d="M4.92793 12.7133L2.21694 25.1312L12.8055 27.5381L10.6405 20.6721L4.92793 12.7133Z" fill="#C0C0C0" fill-opacity="0.05"/>
<path d="M14.3918 23.9774C13.9473 22.2187 13.808 20.5962 13.974 19.1099C14.138 17.6159 14.6682 16.3371 15.5647 15.2735C16.4669 14.2002 17.7665 13.4491 19.4635 13.0202C20.0652 12.8681 20.7267 12.742 21.4482 12.6417C22.1676 12.5337 22.8824 12.472 23.5925 12.4567C24.0714 12.5982 24.4993 12.765 24.876 12.957C25.2586 13.1393 25.6403 13.3834 26.0213 13.6892C26.1597 14.2369 26.2697 14.9805 26.3512 15.92C26.4328 16.8595 26.4601 17.7471 26.4334 18.5827C26.4143 19.4164 26.3337 19.9743 26.1917 20.2564C26.0165 20.4073 25.8643 20.5196 25.7352 20.5933C25.6042 20.6593 25.3921 20.7293 25.099 20.8034C24.7364 20.895 24.3902 20.9538 24.0603 20.9797C23.7304 21.0057 23.4728 20.9928 23.2874 20.9412L21.8969 17.1443C21.3102 17.1285 20.4152 17.2726 19.2119 17.5768C18.9497 17.6431 18.7578 17.6957 18.6363 17.7346C18.5737 18.8829 18.7502 20.3605 19.1659 22.1675L19.28 22.6188C19.5705 23.7681 19.9001 24.7639 20.2689 25.6062C20.5154 26.1594 20.7124 26.5815 20.8598 26.8725C21.0149 27.1615 21.1679 27.3773 21.3188 27.5197C21.4754 27.6524 21.6386 27.6973 21.8083 27.6544C22.41 27.5024 22.8934 27.1586 23.2587 26.6231C23.6316 26.0857 23.9059 25.4502 24.0815 24.7164L23.351 23.1408C24.2757 22.546 25.2307 22.12 26.2161 21.8627C26.6943 21.7419 27.1245 21.6906 27.5066 21.7089C27.8887 21.7272 28.1815 21.8789 28.3848 22.1639C28.5268 23.3426 28.6454 24.8021 28.7406 26.5424C28.8358 28.2827 28.8472 29.3507 28.7749 29.7465C28.3203 30.0255 27.8615 30.2235 27.3987 30.3405C27.1596 30.401 26.9002 30.446 26.6204 30.4757C26.3484 30.5034 26.1024 30.504 25.8824 30.4776C25.818 30.223 25.6418 29.6234 25.3538 28.6786L25.1027 27.8312L24.7669 27.8176C24.4608 28.8469 24.0463 29.723 23.5233 30.4461C22.9983 31.1614 22.3463 31.6175 21.5672 31.8144C20.5645 32.0679 19.6031 31.917 18.6832 31.3617C17.7632 30.8064 16.934 29.8958 16.1955 28.6299C15.4551 27.3563 14.8539 25.8055 14.3918 23.9774Z" fill="#FFB991"/>
<path d="M13.3548 23.9774C12.9103 22.2187 12.771 20.5962 12.937 19.1099C13.101 17.6159 13.6312 16.3371 14.5277 15.2735C15.4299 14.2002 16.7295 13.4491 18.4265 13.0202C19.0282 12.8681 19.6897 12.742 20.4112 12.6417C21.1307 12.5337 21.8454 12.472 22.5555 12.4567C23.0344 12.5982 23.4623 12.765 23.8391 12.957C24.2216 13.1393 24.6033 13.3834 24.9843 13.6892C25.1227 14.2369 25.2327 14.9805 25.3142 15.92C25.3958 16.8595 25.4232 17.7471 25.3964 18.5827C25.3773 19.4164 25.2967 19.9743 25.1547 20.2564C24.9795 20.4073 24.8273 20.5196 24.6982 20.5933C24.5672 20.6593 24.3551 20.7293 24.062 20.8034C23.6994 20.895 23.3532 20.9538 23.0233 20.9797C22.6934 21.0057 22.4358 20.9928 22.2504 20.9412L20.8599 17.1443C20.2732 17.1285 19.3782 17.2726 18.1749 17.5768C17.9127 17.6431 17.7208 17.6957 17.5993 17.7346C17.5367 18.8829 17.7132 20.3605 18.1289 22.1675L18.243 22.6188C18.5335 23.7681 18.8631 24.7639 19.2319 25.6062C19.4784 26.1594 19.6754 26.5815 19.8228 26.8725C19.9779 27.1615 20.1309 27.3773 20.2818 27.5197C20.4384 27.6524 20.6016 27.6973 20.7713 27.6544C21.373 27.5024 21.8564 27.1586 22.2217 26.6231C22.5946 26.0857 22.8689 25.4502 23.0446 24.7164L22.314 23.1408C23.2387 22.546 24.1937 22.12 25.1791 21.8627C25.6573 21.7419 26.0875 21.6906 26.4696 21.7089C26.8518 21.7272 27.1445 21.8789 27.3478 22.1639C27.4898 23.3426 27.6084 24.8021 27.7036 26.5424C27.7988 28.2827 27.8103 29.3507 27.738 29.7465C27.2833 30.0255 26.8245 30.2235 26.3617 30.3405C26.1226 30.401 25.8632 30.446 25.5835 30.4757C25.3114 30.5034 25.0654 30.504 24.8454 30.4776C24.781 30.223 24.6048 29.6234 24.3168 28.6786L24.0657 27.8312L23.7299 27.8176C23.4238 28.8469 23.0093 29.723 22.4863 30.4461C21.9613 31.1614 21.3093 31.6175 20.5303 31.8144C19.5275 32.0679 18.5661 31.917 17.6462 31.3617C16.7262 30.8064 15.897 29.8958 15.1585 28.6299C14.4181 27.3563 13.8169 25.8055 13.3548 23.9774Z" fill="white"/>
<ellipse cx="22.5719" cy="8.0257" rx="2.59394" ry="2.59394" fill="#FFB990"/>
<ellipse cx="21.9498" cy="8.23322" rx="2.59394" ry="2.59394" fill="white"/>
<ellipse cx="26.0488" cy="32.4679" rx="0.760291" ry="0.760292" fill="white"/>
<ellipse cx="28.1777" cy="32.1637" rx="0.760291" ry="0.760292" fill="white"/>
<g filter="url(#filter0_f_406_2865)">
<ellipse cx="18.2939" cy="33.8365" rx="5.4741" ry="0.304117" fill="#170C0C" fill-opacity="0.2"/>
</g>
<defs>
<filter id="filter0_f_406_2865" x="8.81976" y="29.5323" width="18.9482" height="8.60828" filterUnits="userSpaceOnUse" color-interpolation-filters="sRGB">
<feFlood flood-opacity="0" result="BackgroundImageFix"/>
<feBlend mode="normal" in="SourceGraphic" in2="BackgroundImageFix" result="shape"/>
<feGaussianBlur stdDeviation="2" result="effect1_foregroundBlur_406_2865"/>
</filter>
<linearGradient id="paint0_linear_406_2865" x1="20.7457" y1="1.23421" x2="23.0664" y2="38.7154" gradientUnits="userSpaceOnUse">
<stop stop-color="#FC9C56"/>
<stop stop-color="#FC9C56"/>
<stop offset="0.380208" stop-color="#FF852E"/>
<stop offset="0.776042" stop-color="#FF2A1F"/>
</linearGradient>
<linearGradient id="paint1_linear_406_2865" x1="20.7457" y1="1.23421" x2="23.0664" y2="38.7154" gradientUnits="userSpaceOnUse">
<stop stop-color="#FC9C56"/>
<stop stop-color="#FC9C56"/>
<stop offset="0.380208" stop-color="#FF852E"/>
<stop offset="0.776042" stop-color="#FF2A1F"/>
</linearGradient>
<linearGradient id="paint2_linear_406_2865" x1="20.7457" y1="1.23421" x2="23.0664" y2="38.7154" gradientUnits="userSpaceOnUse">
<stop stop-color="#FC9C56"/>
<stop stop-color="#FC9C56"/>
<stop offset="0.380208" stop-color="#FF852E"/>
<stop offset="0.776042" stop-color="#FF2A1F"/>
</linearGradient>
<linearGradient id="paint3_linear_406_2865" x1="20.7457" y1="1.23421" x2="23.0664" y2="38.7154" gradientUnits="userSpaceOnUse">
<stop stop-color="#FC9C56"/>
<stop stop-color="#FC9C56"/>
<stop offset="0.380208" stop-color="#FF852E"/>
<stop offset="0.776042" stop-color="#FF2A1F"/>
</linearGradient>
<linearGradient id="paint4_linear_406_2865" x1="20.7457" y1="1.23421" x2="23.0664" y2="38.7154" gradientUnits="userSpaceOnUse">
<stop stop-color="#FC9C56"/>
<stop stop-color="#FC9C56"/>
<stop offset="0.380208" stop-color="#FF852E"/>
<stop offset="0.776042" stop-color="#FF2A1F"/>
</linearGradient>
<linearGradient id="paint5_linear_406_2865" x1="20.7457" y1="1.23421" x2="23.0664" y2="38.7154" gradientUnits="userSpaceOnUse">
<stop stop-color="#FC9C56"/>
<stop stop-color="#FC9C56"/>
<stop offset="0.380208" stop-color="#FF852E"/>
<stop offset="0.776042" stop-color="#FF2A1F"/>
</linearGradient>
</defs>
</svg>
