<svg width="165" height="40" viewBox="0 0 165 40" fill="none" xmlns="http://www.w3.org/2000/svg">
<path d="M10.7954 20.6731L4.99902 12.7143L20.6099 1.26172L20.6754 5.70751C20.7201 8.74047 19.5512 11.6688 17.4217 13.8588L10.7954 20.6731Z" fill="url(#paint0_linear_1276_28523)"/>
<path d="M17.4221 13.8588C19.5517 11.6688 20.7205 8.74047 20.6759 5.70751L20.6103 1.26172L37.7834 7.65128L35.197 22.6841L12.9926 27.539L10.7958 20.6731L17.4221 13.8588Z" fill="url(#paint1_linear_1276_28523)"/>
<path d="M29.9995 38.3132L12.9922 27.5386L35.1966 22.6836L39.4002 26.3646L29.9995 38.3132Z" fill="url(#paint2_linear_1276_28523)"/>
<path d="M35.1973 22.6812L39.4008 26.3622L41.0785 19.7825C41.8192 16.8766 41.3845 13.8007 39.8652 11.2053L37.7837 7.64844L35.1973 22.6812Z" fill="url(#paint3_linear_1276_28523)"/>
<path d="M12.9929 27.5397L30.0002 38.3143L18.1725 37.459C15.23 37.2462 12.4775 35.9463 10.4657 33.8194L2.24902 25.1328L12.9929 27.5397Z" fill="url(#paint4_linear_1276_28523)"/>
<path d="M4.99976 12.7148L2.24902 25.1327L12.9929 27.5396L10.7961 20.6736L4.99976 12.7148Z" fill="url(#paint5_linear_1276_28523)"/>
<path d="M30.0002 38.3132L12.993 27.5386L35.1974 22.6836L39.4009 26.3646L30.0002 38.3132Z" fill="black" fill-opacity="0.17"/>
<path d="M35.1963 22.6852L39.3998 26.3661L41.0775 19.7864C41.8183 16.8805 41.3835 13.8046 39.8642 11.2092L37.7827 7.65234L35.1963 22.6852Z" fill="black" fill-opacity="0.1"/>
<path d="M12.9929 27.5397L30.0002 38.3144L17.9395 37.3007C15.0584 37.0585 12.3701 35.7741 10.3926 33.695L2.24902 25.1328L12.9929 27.5397Z" fill="black" fill-opacity="0.23"/>
<path d="M4.99979 12.7148L2.24902 25.1327L12.9929 27.5396L10.7961 20.6736L4.99979 12.7148Z" fill="#C0C0C0" fill-opacity="0.05"/>
<path d="M14.6028 23.9778C14.1518 22.2191 14.0104 20.5966 14.1788 19.1103C14.3452 17.6163 14.8832 16.3375 15.7929 15.2739C16.7083 14.2006 18.027 13.4495 19.7489 13.0206C20.3593 12.8685 21.0306 12.7423 21.7626 12.642C22.4926 12.5341 23.2179 12.4724 23.9384 12.457C24.4243 12.5986 24.8585 12.7654 25.2408 12.9573C25.6289 13.1397 26.0162 13.3838 26.4028 13.6896C26.5432 14.2373 26.6548 14.9808 26.7376 15.9204C26.8203 16.8599 26.8481 17.7475 26.8209 18.5831C26.8016 19.4168 26.7198 19.9746 26.5757 20.2568C26.3979 20.4077 26.2435 20.52 26.1125 20.5937C25.9796 20.6596 25.7644 20.7296 25.467 20.8037C25.0991 20.8954 24.7478 20.9541 24.413 20.9801C24.0783 21.006 23.8169 20.9932 23.6288 20.9416L22.2179 17.1447C21.6226 17.1289 20.7146 17.273 19.4936 17.5771C19.2275 17.6434 19.0328 17.696 18.9095 17.735C18.846 18.8833 19.0251 20.3609 19.4469 22.1679L19.5626 22.6192C19.8574 23.7685 20.1918 24.7643 20.5661 25.6066C20.8162 26.1598 21.016 26.5819 21.1656 26.8729C21.323 27.1619 21.4782 27.3776 21.6313 27.5201C21.7903 27.6528 21.9558 27.6977 22.128 27.6548C22.7385 27.5028 23.229 27.159 23.5997 26.6235C23.9781 26.0861 24.2564 25.4506 24.4346 24.7168L23.6933 23.1412C24.6316 22.5464 25.6006 22.1204 26.6005 21.8631C27.0857 21.7423 27.5222 21.691 27.9099 21.7093C28.2976 21.7276 28.5947 21.8793 28.801 22.1643C28.9451 23.343 29.0654 24.8025 29.162 26.5428C29.2586 28.2831 29.2702 29.3511 29.1968 29.7469C28.7355 30.0259 28.27 30.224 27.8004 30.3409C27.5578 30.4014 27.2946 30.4464 27.0107 30.4761C26.7347 30.5038 26.4851 30.5045 26.2618 30.478C26.1965 30.2235 26.0178 29.6238 25.7255 28.679L25.4707 27.8316L25.13 27.818C24.8195 28.8473 24.3988 29.7234 23.8682 30.4465C23.3355 31.1618 22.6739 31.6179 21.8834 31.8148C20.866 32.0683 19.8905 31.9174 18.9571 31.3621C18.0236 30.8068 17.1822 29.8962 16.433 28.6303C15.6817 27.3567 15.0716 25.8059 14.6028 23.9778Z" fill="#FFB991"/>
<path d="M13.5501 23.9778C13.0991 22.2191 12.9578 20.5966 13.1262 19.1103C13.2926 17.6163 13.8306 16.3375 14.7402 15.2739C15.6557 14.2006 16.9744 13.4495 18.6962 13.0206C19.3067 12.8685 19.9779 12.7423 20.7099 12.642C21.44 12.5341 22.1652 12.4724 22.8857 12.457C23.3717 12.5986 23.8058 12.7654 24.1881 12.9573C24.5762 13.1397 24.9636 13.3838 25.3501 13.6896C25.4906 14.2373 25.6021 14.9808 25.6849 15.9204C25.7677 16.8599 25.7954 17.7475 25.7683 18.5831C25.7489 19.4168 25.6672 19.9746 25.523 20.2568C25.3452 20.4077 25.1909 20.52 25.0598 20.5937C24.9269 20.6596 24.7117 20.7296 24.4143 20.8037C24.0464 20.8954 23.6951 20.9541 23.3604 20.9801C23.0256 21.006 22.7643 20.9932 22.5761 20.9416L21.1653 17.1447C20.57 17.1289 19.6619 17.273 18.4409 17.5771C18.1748 17.6434 17.9801 17.696 17.8569 17.735C17.7933 18.8833 17.9724 20.3609 18.3942 22.1679L18.51 22.6192C18.8047 23.7685 19.1392 24.7643 19.5134 25.6066C19.7635 26.1598 19.9634 26.5819 20.1129 26.8729C20.2703 27.1619 20.4256 27.3776 20.5787 27.5201C20.7376 27.6528 20.9032 27.6977 21.0754 27.6548C21.6859 27.5028 22.1764 27.159 22.547 26.6235C22.9254 26.0861 23.2038 25.4506 23.3819 24.7168L22.6407 23.1412C23.5789 22.5464 24.548 22.1204 25.5478 21.8631C26.0331 21.7423 26.4695 21.691 26.8572 21.7093C27.245 21.7276 27.542 21.8793 27.7484 22.1643C27.8924 23.343 28.0128 24.8025 28.1093 26.5428C28.2059 28.2831 28.2176 29.3511 28.1442 29.7469C27.6828 30.0259 27.2174 30.224 26.7478 30.3409C26.5051 30.4014 26.2419 30.4464 25.9581 30.4761C25.6821 30.5038 25.4325 30.5045 25.2092 30.478C25.1439 30.2235 24.9651 29.6238 24.6729 28.679L24.4181 27.8316L24.0773 27.818C23.7668 28.8473 23.3462 29.7234 22.8155 30.4465C22.2828 31.1618 21.6213 31.6179 20.8308 31.8148C19.8133 32.0683 18.8379 31.9174 17.9044 31.3621C16.971 30.8068 16.1296 29.8962 15.3803 28.6303C14.629 27.3567 14.019 25.8059 13.5501 23.9778Z" fill="white"/>
<path d="M22.9036 10.6176C24.3572 10.6176 25.5356 9.45622 25.5356 8.02363C25.5356 6.59103 24.3572 5.42969 22.9036 5.42969C21.45 5.42969 20.2716 6.59103 20.2716 8.02363C20.2716 9.45622 21.45 10.6176 22.9036 10.6176Z" fill="#FFB990"/>
<path d="M22.2726 10.8285C23.7262 10.8285 24.9046 9.66716 24.9046 8.23456C24.9046 6.80197 23.7262 5.64062 22.2726 5.64062C20.819 5.64062 19.6406 6.80197 19.6406 8.23456C19.6406 9.66716 20.819 10.8285 22.2726 10.8285Z" fill="white"/>
<path d="M26.4306 33.2276C26.8566 33.2276 27.202 32.8872 27.202 32.4673C27.202 32.0474 26.8566 31.707 26.4306 31.707C26.0045 31.707 25.6591 32.0474 25.6591 32.4673C25.6591 32.8872 26.0045 33.2276 26.4306 33.2276Z" fill="white"/>
<path d="M28.5905 32.9229C29.0166 32.9229 29.362 32.5825 29.362 32.1626C29.362 31.7427 29.0166 31.4023 28.5905 31.4023C28.1645 31.4023 27.8191 31.7427 27.8191 32.1626C27.8191 32.5825 28.1645 32.9229 28.5905 32.9229Z" fill="white"/>
<g filter="url(#filter0_f_1276_28523)">
<path d="M18.5622 34.1395C21.6298 34.1395 24.1166 34.0033 24.1166 33.8354C24.1166 33.6674 21.6298 33.5312 18.5622 33.5312C15.4946 33.5312 13.0078 33.6674 13.0078 33.8354C13.0078 34.0033 15.4946 34.1395 18.5622 34.1395Z" fill="#170C0C" fill-opacity="0.2"/>
</g>
<path d="M47.6299 27.5175V12.0391H52.8211C54.7384 12.0391 56.3981 12.3555 57.8011 12.9884C59.2037 13.6213 60.289 14.5156 61.0574 15.6713C61.8258 16.827 62.2098 18.196 62.2098 19.7783C62.2098 21.3536 61.8258 22.7226 61.0574 23.8852C60.289 25.0409 59.2037 25.9352 57.8011 26.5681C56.3981 27.201 54.7384 27.5175 52.8211 27.5175H47.6299ZM50.8862 24.7417H52.9373C54.2061 24.7417 55.2812 24.5491 56.162 24.1638C57.0502 23.7717 57.7234 23.2076 58.1816 22.4715C58.6468 21.7285 58.8794 20.8308 58.8794 19.7783C58.8794 18.7188 58.6468 17.8211 58.1816 17.085C57.7234 16.3489 57.0502 15.7883 56.162 15.403C55.2812 15.0109 54.2061 14.8148 52.9373 14.8148H50.8862V24.7417Z" fill="white"/>
<path d="M67.2852 27.5175H64.251V17.1986H66.8942L66.9999 18.9838C67.3523 18.3577 67.8316 17.8693 68.4376 17.5185C69.0441 17.1676 69.7383 16.9922 70.5208 16.9922C70.7464 16.9922 70.9719 17.0094 71.1975 17.0438C71.4301 17.0713 71.6662 17.116 71.9058 17.1779L71.5249 19.8402C71.0598 19.7095 70.6192 19.6441 70.2035 19.6441C69.6185 19.6441 69.1038 19.7749 68.6597 20.0363C68.223 20.2908 67.8846 20.6485 67.645 21.1095C67.405 21.5635 67.2852 22.0966 67.2852 22.7089V27.5175Z" fill="white"/>
<path d="M83.0388 26.3618C81.7275 27.2699 80.2933 27.7239 78.7354 27.7239C77.5795 27.7239 76.5399 27.4831 75.6165 27.0016C74.7002 26.5131 73.9743 25.8527 73.4385 25.0203C72.9097 24.188 72.6455 23.2489 72.6455 22.2033C72.6455 21.2058 72.8851 20.3149 73.3644 19.5306C73.851 18.7464 74.5098 18.1273 75.3418 17.6732C76.1734 17.2192 77.1178 16.9922 78.175 16.9922C79.2677 16.9922 80.2297 17.2433 81.0617 17.7455C81.8934 18.2408 82.542 18.9356 83.0072 19.8299C83.4723 20.7173 83.7049 21.7458 83.7049 22.9153V23.2455H75.9127C76.0396 23.6513 76.2476 24.0091 76.5364 24.3186C76.8255 24.6213 77.185 24.8621 77.615 25.041C78.0447 25.2198 78.5384 25.3093 79.0949 25.3093C80.1735 25.3093 81.178 24.9687 82.1084 24.2877L83.0388 26.3618ZM75.775 21.7389H80.9029C80.8467 21.2918 80.7019 20.8996 80.4693 20.5625C80.2438 20.2186 79.9444 19.9503 79.571 19.7577C79.2041 19.565 78.792 19.4687 78.3339 19.4687C77.8687 19.4687 77.4527 19.5685 77.0862 19.768C76.7268 19.9675 76.4341 20.2358 76.2085 20.5729C75.983 20.91 75.8386 21.2986 75.775 21.7389Z" fill="white"/>
<path d="M95.0603 27.5175H92.4171L92.2583 26.2896C91.8707 26.7436 91.3915 27.0979 90.8206 27.3524C90.2496 27.6001 89.6221 27.7239 88.9384 27.7239C88.1984 27.7239 87.5393 27.5863 86.9613 27.3111C86.3834 27.0291 85.9287 26.6438 85.5974 26.1554C85.2661 25.6601 85.1006 25.0995 85.1006 24.4734C85.1006 23.813 85.2801 23.2317 85.6399 22.7295C85.9993 22.2273 86.4926 21.8352 87.1198 21.5531C87.7543 21.2642 88.4732 21.1198 89.2767 21.1198C89.7489 21.1198 90.2215 21.1714 90.6937 21.2746C91.173 21.3777 91.6171 21.5222 92.0257 21.708V21.4396C92.0257 21.0269 91.9059 20.6726 91.6662 20.3768C91.4336 20.0741 91.1093 19.8402 90.6937 19.6751C90.2847 19.51 89.8266 19.4275 89.3192 19.4275C88.8326 19.4275 88.3499 19.5031 87.8706 19.6545C87.3984 19.8058 86.9613 20.0328 86.5597 20.3355L85.7348 18.0757C86.447 17.718 87.1658 17.4496 87.8917 17.2708C88.625 17.0851 89.3333 16.9922 90.017 16.9922C91.0461 16.9922 91.9379 17.1917 92.6918 17.5907C93.4462 17.9828 94.0277 18.54 94.4363 19.2623C94.8523 19.9778 95.0603 20.8274 95.0603 21.8111V27.5175ZM89.6045 25.4434C90.0065 25.4434 90.3905 25.3574 90.7569 25.1854C91.1234 25.0135 91.4196 24.7796 91.6452 24.4838C91.8778 24.188 92.0011 23.8612 92.0151 23.5035V23.4312C91.7049 23.2248 91.3595 23.0666 90.979 22.9565C90.6055 22.8396 90.225 22.7811 89.8371 22.7811C89.2591 22.7811 88.7869 22.905 88.4205 23.1526C88.054 23.4003 87.8706 23.7201 87.8706 24.1123C87.8706 24.3668 87.9448 24.5973 88.0927 24.8036C88.2476 25.0031 88.4556 25.1613 88.7163 25.2783C88.9774 25.3884 89.2732 25.4434 89.6045 25.4434Z" fill="white"/>
<path d="M114.63 27.5175H111.596V22.3374C111.596 21.4775 111.423 20.8136 111.078 20.3458C110.732 19.8781 110.242 19.6441 109.608 19.6441C108.959 19.6441 108.452 19.8815 108.085 20.3562C107.726 20.8308 107.546 21.4913 107.546 22.3374V27.5175H104.512V22.3374C104.512 21.4775 104.339 20.8136 103.994 20.3458C103.648 19.8781 103.155 19.6441 102.514 19.6441C101.872 19.6441 101.368 19.8815 101.002 20.3562C100.642 20.8308 100.462 21.4913 100.462 22.3374V27.5175H97.4277V17.1986H99.8493L99.9546 18.9012C100.307 18.2752 100.78 17.8005 101.372 17.4772C101.971 17.1538 102.665 16.9922 103.454 16.9922C104.279 16.9922 104.991 17.1607 105.59 17.4978C106.189 17.8349 106.651 18.3199 106.975 18.9528C107.335 18.313 107.81 17.828 108.402 17.4978C109.002 17.1607 109.71 16.9922 110.528 16.9922C111.818 16.9922 112.822 17.3946 113.541 18.1995C114.267 18.9975 114.63 20.1154 114.63 21.5531V27.5175Z" fill="white"/>
<path d="M131.593 16.2389C131.127 15.7848 130.571 15.434 129.922 15.1863C129.281 14.9387 128.593 14.8148 127.861 14.8148C127.128 14.8148 126.458 14.9387 125.851 15.1863C125.245 15.434 124.724 15.7883 124.287 16.2492C123.85 16.7101 123.512 17.2604 123.272 17.9002C123.032 18.5331 122.912 19.2417 122.912 20.0259C122.912 20.8101 123.032 21.529 123.272 22.1826C123.519 22.8361 123.864 23.4002 124.308 23.8749C124.759 24.3427 125.291 24.7073 125.905 24.9687C126.525 25.2301 127.208 25.3608 127.956 25.3608C128.576 25.3608 129.143 25.2679 129.658 25.0822C130.179 24.8964 130.638 24.6316 131.033 24.2876C131.427 23.9437 131.751 23.5275 132.005 23.0391C132.266 22.5506 132.446 22.0037 132.544 21.3983H127.945V18.9734H135.41L135.505 20.1704C135.505 21.3468 135.318 22.4233 134.944 23.4002C134.578 24.3771 134.056 25.2198 133.379 25.9284C132.703 26.63 131.896 27.1735 130.958 27.5588C130.028 27.944 128.995 28.1366 127.861 28.1366C126.684 28.1366 125.591 27.9337 124.583 27.5278C123.582 27.1219 122.704 26.5544 121.95 25.8252C121.203 25.0959 120.622 24.2429 120.206 23.2661C119.79 22.2823 119.582 21.2195 119.582 20.0775C119.582 18.9356 119.786 17.8796 120.195 16.9096C120.611 15.9327 121.189 15.0797 121.929 14.3505C122.676 13.6213 123.547 13.0538 124.541 12.6479C125.535 12.242 126.616 12.0391 127.786 12.0391C128.879 12.0391 129.936 12.2248 130.958 12.5963C131.98 12.9678 132.893 13.4974 133.697 14.1854L131.593 16.2389Z" fill="white"/>
<path d="M139.068 15.0397C138.666 15.0397 138.327 14.9022 138.052 14.627C137.777 14.3518 137.64 14.0182 137.64 13.626C137.64 13.2339 137.777 12.9037 138.052 12.6354C138.327 12.3602 138.666 12.2227 139.068 12.2227C139.476 12.2227 139.818 12.3602 140.093 12.6354C140.375 12.9037 140.516 13.2339 140.516 13.626C140.516 14.0182 140.375 14.3518 140.093 14.627C139.818 14.9022 139.476 15.0397 139.068 15.0397ZM140.59 27.8249H137.556V17.506H140.59V27.8249Z" fill="white"/>
<path d="M147.526 27.9499C146.574 27.9499 145.721 27.7195 144.967 27.2585C144.213 26.7908 143.621 26.1579 143.191 25.3599C142.761 24.555 142.546 23.6435 142.546 22.6254C142.546 21.6003 142.761 20.6888 143.191 19.8908C143.621 19.0928 144.213 18.4634 144.967 18.0025C145.721 17.5347 146.578 17.3008 147.536 17.3008C148.283 17.3008 148.967 17.4452 149.588 17.7342C150.215 18.0162 150.754 18.4084 151.205 18.9106L151.343 17.5072H154.007V27.5372C154.007 28.6791 153.75 29.6732 153.235 30.5194C152.728 31.3724 152.009 32.0294 151.078 32.4903C150.148 32.958 149.059 33.192 147.811 33.192C146.077 33.192 144.505 32.6622 143.096 31.6029L144.322 29.1882C145.26 30.0894 146.352 30.54 147.6 30.54C148.269 30.54 148.854 30.4093 149.355 30.1479C149.862 29.8865 150.257 29.5219 150.539 29.0541C150.828 28.5863 150.973 28.0428 150.973 27.4237V26.5775C150.536 27.004 150.024 27.3411 149.439 27.5888C148.854 27.8296 148.217 27.9499 147.526 27.9499ZM148.308 25.3083C148.802 25.3083 149.249 25.2051 149.651 24.9987C150.053 24.7854 150.373 24.4931 150.613 24.1216C150.853 23.7432 150.973 23.3167 150.973 22.8421V22.3983C150.973 21.9237 150.849 21.5006 150.602 21.1291C150.363 20.7576 150.042 20.4687 149.64 20.2623C149.246 20.0491 148.802 19.9424 148.308 19.9424C147.801 19.9424 147.346 20.0594 146.944 20.2933C146.542 20.5272 146.225 20.8471 145.993 21.2529C145.76 21.6519 145.644 22.1094 145.644 22.6254C145.644 23.1413 145.76 23.6022 145.993 24.0081C146.225 24.414 146.542 24.7339 146.944 24.9677C147.346 25.1948 147.801 25.3083 148.308 25.3083Z" fill="white"/>
<path d="M155.741 26.9387L156.407 24.4209C156.619 24.6479 156.901 24.8577 157.253 25.0503C157.613 25.2429 157.997 25.3977 158.405 25.5147C158.821 25.6247 159.213 25.6798 159.579 25.6798C160.016 25.6798 160.358 25.6007 160.605 25.4424C160.852 25.2773 160.975 25.0572 160.975 24.782C160.975 24.555 160.89 24.3658 160.721 24.2145C160.559 24.0562 160.337 23.9187 160.055 23.8017C159.78 23.6779 159.474 23.5575 159.135 23.4406C158.677 23.2686 158.205 23.0691 157.719 22.8421C157.239 22.6151 156.834 22.3055 156.503 21.9134C156.171 21.5212 156.006 21.0019 156.006 20.3552C156.006 19.7361 156.171 19.1995 156.503 18.7454C156.834 18.2845 157.303 17.9302 157.909 17.6826C158.515 17.4281 159.22 17.3008 160.023 17.3008C161.327 17.3008 162.628 17.6207 163.925 18.2604L163.068 20.6029C162.843 20.4309 162.561 20.2726 162.223 20.1282C161.884 19.9768 161.535 19.8564 161.176 19.767C160.823 19.6776 160.506 19.6329 160.224 19.6329C159.879 19.6329 159.607 19.7017 159.41 19.8392C159.22 19.9768 159.125 20.166 159.125 20.4068C159.125 20.5856 159.191 20.7473 159.326 20.8918C159.46 21.0294 159.657 21.1635 159.918 21.2942C160.185 21.4181 160.513 21.5522 160.901 21.6967C161.38 21.8686 161.863 22.075 162.349 22.3158C162.843 22.5497 163.255 22.8661 163.587 23.2651C163.925 23.6572 164.094 24.1801 164.094 24.8336C164.094 25.4734 163.914 26.0341 163.555 26.5156C163.202 26.9972 162.702 27.3721 162.053 27.6404C161.412 27.9018 160.658 28.0325 159.791 28.0325C158.346 28.0325 156.996 27.6679 155.741 26.9387Z" fill="white"/>
<defs>
<filter id="filter0_f_1276_28523" x="9.00781" y="29.5312" width="19.1088" height="8.60938" filterUnits="userSpaceOnUse" color-interpolation-filters="sRGB">
<feFlood flood-opacity="0" result="BackgroundImageFix"/>
<feBlend mode="normal" in="SourceGraphic" in2="BackgroundImageFix" result="shape"/>
<feGaussianBlur stdDeviation="2" result="effect1_foregroundBlur_1276_28523"/>
</filter>
<linearGradient id="paint0_linear_1276_28523" x1="21.0496" y1="1.23489" x2="23.337" y2="38.7204" gradientUnits="userSpaceOnUse">
<stop stop-color="#FC9C56"/>
<stop offset="0.380208" stop-color="#FF852E"/>
<stop offset="0.776042" stop-color="#FF2A1F"/>
</linearGradient>
<linearGradient id="paint1_linear_1276_28523" x1="21.05" y1="1.23489" x2="23.3374" y2="38.7204" gradientUnits="userSpaceOnUse">
<stop stop-color="#FC9C56"/>
<stop offset="0.380208" stop-color="#FF852E"/>
<stop offset="0.776042" stop-color="#FF2A1F"/>
</linearGradient>
<linearGradient id="paint2_linear_1276_28523" x1="21.0496" y1="1.2344" x2="23.337" y2="38.7199" gradientUnits="userSpaceOnUse">
<stop stop-color="#FC9C56"/>
<stop offset="0.380208" stop-color="#FF852E"/>
<stop offset="0.776042" stop-color="#FF2A1F"/>
</linearGradient>
<linearGradient id="paint3_linear_1276_28523" x1="21.0503" y1="1.23205" x2="23.3377" y2="38.7175" gradientUnits="userSpaceOnUse">
<stop stop-color="#FC9C56"/>
<stop offset="0.380208" stop-color="#FF852E"/>
<stop offset="0.776042" stop-color="#FF2A1F"/>
</linearGradient>
<linearGradient id="paint4_linear_1276_28523" x1="21.0503" y1="1.23554" x2="23.3377" y2="38.721" gradientUnits="userSpaceOnUse">
<stop stop-color="#FC9C56"/>
<stop offset="0.380208" stop-color="#FF852E"/>
<stop offset="0.776042" stop-color="#FF2A1F"/>
</linearGradient>
<linearGradient id="paint5_linear_1276_28523" x1="21.0503" y1="1.23542" x2="23.3377" y2="38.7209" gradientUnits="userSpaceOnUse">
<stop stop-color="#FC9C56"/>
<stop offset="0.380208" stop-color="#FF852E"/>
<stop offset="0.776042" stop-color="#FF2A1F"/>
</linearGradient>
</defs>
</svg>
